HIERARCHY
ROOT Hips
{
  OFFSET -31.5692 30.0904 122.763
  CHANNELS 6 Xposition Yposition Zposition Zrotation Xrotation Yrotation
  JOINT LeftUpLeg
  {
    OFFSET 8.64259 1.95398 -2.38835
    CHANNELS 3 Zrotation Xrotation Yrotation
    JOINT LeftLeg
    {
      OFFSET 43.7702 0 0
      CHANNELS 3 Zrotation Xrotation Yrotation
      JOINT LeftFoot
      {
        OFFSET 40.6238 0 0
        CHANNELS 3 Zrotation Xrotation Yrotation
        JOINT LeftToeBase
        {
          OFFSET 12.7242 0 0
          CHANNELS 3 Zrotation Xrotation Yrotation
          End Site
          {
            OFFSET 0 0 0
          }
        }
      }
    }
  }
  JOINT RightUpLeg
  {
    OFFSET -8.2249 1.95398 -2.59336
    CHANNELS 3 Zrotation Xrotation Yrotation
    JOINT RightLeg
    {
      OFFSET 43.5653 0 0
      CHANNELS 3 Zrotation Xrotation Yrotation
      JOINT RightFoot
      {
        OFFSET 40.6238 0 0
        CHANNELS 3 Zrotation Xrotation Yrotation
        JOINT RightToeBase
        {
          OFFSET 12.7242 0 0
          CHANNELS 3 Zrotation Xrotation Yrotation
          End Site
          {
            OFFSET 0 0 0
          }
        }
      }
    }
  }
  JOINT Spine
  {
    OFFSET 0.165834 0.87714 6.61349
    CHANNELS 3 Zrotation Xrotation Yrotation
    JOINT Spine1
    {
      OFFSET 7.38963 1.71661e-005 0
      CHANNELS 3 Zrotation Xrotation Yrotation
      JOINT Spine2
      {
        OFFSET 11.9445 1.14441e-005 0
        CHANNELS 3 Zrotation Xrotation Yrotation
        JOINT Spine3
        {
          OFFSET 14.7254 4.19617e-005 0
          CHANNELS 3 Zrotation Xrotation Yrotation
          JOINT Spine4
          {
            OFFSET 10.9679 0 0
            CHANNELS 3 Zrotation Xrotation Yrotation
            JOINT RightShoulder
            {
              OFFSET 2.46616 -1.6653 3.69651
              CHANNELS 3 Zrotation Xrotation Yrotation
              JOINT RightArm
              {
                OFFSET 13.0012 0 0
                CHANNELS 3 Zrotation Xrotation Yrotation
                JOINT RightForeArm
                {
                  OFFSET 28.7848 1.62311e-005 0
                  CHANNELS 3 Zrotation Xrotation Yrotation
                  JOINT RightHand
                  {
                    OFFSET 26.5688 1.62095e-005 0
                    CHANNELS 3 Zrotation Xrotation Yrotation
                    End Site
                    {
                      OFFSET 0 0 0
                    }
                  }
                }
              }
            }
            JOINT LeftShoulder
            {
              OFFSET 2.38034 -1.29275 -3.7523
              CHANNELS 3 Zrotation Xrotation Yrotation
              JOINT LeftArm
              {
                OFFSET 16.3182 6.07031e-005 0
                CHANNELS 3 Zrotation Xrotation Yrotation
                JOINT LeftForeArm
                {
                  OFFSET 27.0901 0 0
                  CHANNELS 3 Zrotation Xrotation Yrotation
                  JOINT LeftHand
                  {
                    OFFSET 24.5451 1.51738e-005 0
                    CHANNELS 3 Zrotation Xrotation Yrotation
                    End Site
                    {
                      OFFSET 0 0 0
                    }
                  }
                }
              }
            }
            JOINT Neck
            {
              OFFSET 5.0226 -0.0266342 0
              CHANNELS 3 Zrotation Xrotation Yrotation
              JOINT Head
              {
                OFFSET 6.69364 2.86102e-005 0
                CHANNELS 3 Zrotation Xrotation Yrotation
                End Site
                {
                  OFFSET 0 0 0
                }
              }
            }
          }
        }
      }
    }
  }
}
MOTION
Frames:	9
Frame Time:	0.0416667
18.2904 100.246 -55.4586 -130.214 -78.83 -132.573 -174.759 -0.103185 82.4447 -22.6433 -1.30177 -1.92306 75.7715 8.02842 -1.53377 15.008 -10.5371 7.32159 176.71 17.3668 89.329 -48.7681 -7.62923 -3.69366 68.7105 -5.00453 -2.03937 22.8569 1.95644 3.16355 -0.017122 7.90341 -89.7781 11.0677 0.0689706 0.434926 -0.603293 0.0880423 0.431467 -23.1381 -0.0649418 0.435542 -3.1254 -0.0649411 0.435545 90.5176 -29.0814 -106.072 39.7505 -6.78626 -2.17444 5.50138 -27.6187 -14.8893 -23.1286 0.343315 -12.4202 -87.7993 -50.1668 82.0549 -17.2085 7.06632 -22.2053 -3.48516 -5.81962 -1.31087 5.54687 -1.1018 -17.6299 1.97131 3.04708 -2.64777 -5.56725 3.41438 0.552952 
17.5286 99.3952 -47.955 -148.145 -82.3843 -150.663 -174.644 -4.33359 82.9857 -22.8175 3.2747 -1.09732 79.9699 10.4675 -1.38125 15.092 -10.7705 7.85974 176.07 19.8312 89.8057 -25.3312 -4.9297 -0.703761 62.6625 -2.21817 -1.49393 24.4783 1.26561 3.06222 -0.641527 7.93259 -89.8365 11.0113 -1.20127 0.440375 -0.65913 -1.18072 0.492818 -23.1987 -1.27808 0.0589327 -3.18607 -1.27807 0.0589332 91.0229 -30.513 -104.546 39.2563 -4.3417 3.57077 4.29261 -28.5445 -15.6078 -21.8232 0.0762427 -11.4154 -88.3538 -46.2777 80.4687 -16.912 6.24993 -31.7291 -2.76988 -3.31101 -2.84588 7.59228 -1.63464 -21.6019 2.01982 3.08627 -4.9268 -5.4181 3.77521 2.89706 
16.9318 97.6657 -39.5318 178.135 -83.546 174.297 -174.022 -10.574 83.5717 -22.2371 7.32327 -0.839664 84.6685 13.5329 -2.41186 16.9513 -10.7579 10.0739 175.186 20.4319 88.4652 -6.5963 0.438634 1.09162 61.2523 -1.78438 -1.46361 25.041 0.483068 5.32033 -1.084 7.98967 -89.7356 10.902 -2.03586 0.717939 -0.767614 -2.00229 0.806856 -23.3155 -2.15747 0.0726124 -3.30283 -2.15746 0.0726128 91.4549 -31.9908 -103.203 39.5256 -2.3758 7.9516 5.30271 -25.2429 -12.7688 -21.6614 0.0477949 -10.4755 -89.3397 -44.7166 78.5816 -15.3215 4.4338 -40.06 -1.88409 3.29816 -3.02402 9.02951 -2.03137 -24.1276 1.61676 2.90346 -6.61228 -4.92073 3.83734 3.9817 
16.3859 95.4266 -30.4176 144.033 -82.212 138.876 -172.982 -16.784 85.2111 -21.8825 11.9671 -0.349948 87.9176 16.3026 -3.1767 20.0705 -10.0334 12.7103 174.587 23.7688 86.3001 -6.25678 8.99963 1.64488 63.6599 -2.14424 -0.793845 26.9625 0.0182975 3.75265 -1.38415 7.99771 -89.7364 10.8893 -2.63393 0.772028 -0.779309 -2.5974 0.887267 -23.336 -2.7441 -0.0558581 -3.32329 -2.7441 -0.0558624 92.0208 -32.0742 -102.08 40.3892 -1.50683 10.5641 7.27807 -22.4132 -8.4845 -18.0817 -0.00961868 -10.2628 -90.5597 -45.3797 76.8053 -15.2987 4.1895 -45.6554 -0.675002 7.06227 -2.64005 7.82283 -1.78293 -24.4205 2.74356 2.12793 -6.50101 -5.37481 3.101 4.26083 
16.0492 94.4177 -20.9217 123.563 -79.6242 118.126 -172.178 -18.5466 87.3303 -26.4537 14.7056 1.06212 82.6497 14.7141 0.561985 29.9972 -4.1541 13.9668 171.866 27.1465 84.2708 -15.8897 7.69571 3.61462 58.5214 2.42103 -0.276203 22.5572 2.5942 1.35721 -1.4656 8.03656 -89.9595 10.8085 -2.89964 0.351033 -0.85927 -2.88137 0.478411 -23.42 -2.87098 -0.537404 -3.40736 -2.87097 -0.537399 91.7259 -31.5964 -102.802 41.1749 -1.0395 10.5324 9.087 -17.8803 -2.97825 -15.8531 -0.109401 -8.90082 -91.7467 -45.8013 75.0609 -16.6351 6.62912 -48.4479 -0.0710585 10.3923 -0.396599 4.90012 -0.918884 -21.3951 6.91247 1.24298 -3.51038 -6.27782 1.84253 3.08264 
15.5291 93.7687 -12.5441 116.08 -79.5053 111.139 -169.677 -9.6989 90.609 -45.2155 16.2266 0.6324 70.532 6.60468 3.39539 35.4049 -0.105184 11.8304 169.423 33.6526 83.8873 -32.9763 2.45268 6.26658 60.3486 2.77648 -0.753741 11.7604 6.79641 3.68278 -1.14777 8.31785 -90.2499 10.2366 -2.40092 -0.290932 -1.43217 -2.41138 -0.184933 -23.9826 -2.20243 -0.99939 -3.96999 -2.20242 -0.999392 90.8869 -29.7395 -105.091 39.8994 -2.25158 6.41921 9.80419 -17.0315 -1.59947 -15.2271 -0.177817 -8.20669 -92.6219 -44.0698 73.2026 -15.5594 9.16504 -52.0876 -1.68203 16.7175 -0.00255671 -0.0141333 0.418431 -17.4602 14.296 0.640116 -0.639402 -6.73372 0.733536 2.0677 
14.6841 92.7922 -7.72719 109.535 -79.8882 105.587 -163.729 10.8178 96.3425 -71.7979 14.1822 -0.896004 61.513 -0.464953 1.80263 7.35225 -11.625 1.15927 165.68 37.1593 85.9643 -42.9187 -0.916394 7.5745 64.484 -1.07556 -3.01012 14.1627 5.35459 4.63424 -0.752556 8.98903 -90.491 8.88899 -1.71988 -0.855787 -2.78103 -1.75588 -0.779255 -25.3205 -1.38319 -1.33315 -5.30782 -1.38318 -1.33315 89.5858 -27.7478 -108.497 32.884 -4.78458 -3.41044 10.5692 -22.367 -4.18763 -18.6555 -0.588693 -5.7778 -93.0009 -41.9605 71.9624 -12.6047 8.4007 -59.6469 -2.92775 29.8693 -0.00282375 -7.09031 2.21383 -14.7309 23.4762 -0.0100061 0.636284 -7.52761 -0.272926 1.12183 
14.6685 91.6571 -4.83213 84.3326 -81.3612 79.4614 -154.953 30.1851 89.7562 -80.8187 10.2101 -4.186 70.1548 5.38535 2.99949 11.6813 -9.8954 2.51019 162.221 43.104 86.1354 -48.5413 -4.8796 9.51499 67.7901 -3.82771 -4.00905 14.9498 4.76192 5.33862 -0.359298 9.4439 -90.5669 7.98051 -0.965132 -1.06353 -3.69053 -1.01101 -1.02004 -26.2232 -0.600935 -1.30439 -6.21052 -0.600927 -1.3044 90.182 -24.5585 -108.613 24.682 -2.78589 -17.2679 7.22758 -25.7403 -7.631 -27.1213 -1.56199 -2.20071 -93.7198 -41.449 70.6322 -9.07992 7.33905 -62.6462 -3.6607 37.2867 -0.00307769 5.55931 1.0555 -10.1993 29.5052 0.144715 3.27564 -5.9958 -1.17372 0.362804 
15.094 89.7888 -2.53668 41.9512 -81.6498 35.9331 -145.649 44.2712 84.7148 -74.908 5.50894 -10.2826 72.7649 6.89152 1.69874 14.4275 -8.46384 2.6989 157.968 50.8783 87.5508 -54.114 -10.6252 11.6656 70.3002 -5.96788 -4.40754 15.1134 4.30329 6.47429 0.160705 9.70301 -90.3779 7.46838 0.157234 -0.753209 -4.20279 0.123928 -0.759408 -26.7366 0.376324 -0.671145 -6.72389 0.376331 -0.671137 91.6993 -18.2871 -108.183 24.7175 -1.65104 -30.1233 4.16988 -27.1623 -9.55892 -31.4094 -2.17956 -0.150648 -93.4948 -40.1129 70.5552 -6.46065 7.05357 -65.5906 -4.7021 38.8542 -0.00314436 16.1831 0.703008 -4.21648 32.867 0.135291 3.1241 -5.42547 -1.21251 0.939949 
